<svg width="345" height="345" viewBox="0 0 345 345" fill="none" xmlns="http://www.w3.org/2000/svg">
<rect x="43.125" y="40.4297" width="258.75" height="261.445" fill="#1F4287"/>
<path d="M280.312 301.875H64.6875C58.9737 301.859 53.4985 299.582 49.4582 295.542C45.4179 291.502 43.141 286.026 43.125 280.312V64.6875C43.141 58.9737 45.4179 53.4985 49.4582 49.4582C53.4985 45.4179 58.9737 43.141 64.6875 43.125H280.312C286.026 43.141 291.502 45.4179 295.542 49.4582C299.582 53.4985 301.859 58.9737 301.875 64.6875V280.312C301.859 286.026 299.582 291.502 295.542 295.542C291.502 299.582 286.026 301.859 280.312 301.875Z" stroke="white" stroke-width="32" stroke-linecap="round" stroke-linejoin="round"/>
<path d="M145.532 242.06L83.7825 180.31C80.0727 176.6 80.0727 170.585 83.7825 166.875L97.2172 153.44C100.927 149.73 106.942 149.73 110.652 153.44L152.25 195.037L241.348 105.94C245.057 102.23 251.073 102.23 254.783 105.94L268.217 119.375C271.927 123.085 271.927 129.1 268.217 132.81L158.967 242.06C155.257 245.77 149.242 245.77 145.532 242.06Z" fill="white"/>
</svg>
